<svg width="94" height="40" viewBox="0 0 94 40" fill="none" xmlns="http://www.w3.org/2000/svg">
<path d="M29.7373 8C30.987 8 32 9.01303 32 10.2627V29.7373C32 30.987 30.987 32 29.7373 32H10.2627C9.01303 32 8 30.987 8 29.7373V10.2627C8 9.01303 9.01303 8 10.2627 8H29.7373Z" fill="black" fill-opacity="0.5"/>
<path d="M18.4033 4.66135C19.2851 3.77955 20.7149 3.77955 21.5967 4.66135L35.3387 18.4033C36.2204 19.2851 36.2204 20.7149 35.3387 21.5967L21.5967 35.3387C20.7149 36.2204 19.2851 36.2204 18.4033 35.3387L4.66135 21.5967C3.77955 20.7149 3.77955 19.2851 4.66135 18.4033L18.4033 4.66135Z" fill="black"/>
<path d="M20 23C21.6569 23 23 21.6569 23 20C23 18.3431 21.6569 17 20 17C18.3431 17 17 18.3431 17 20C17 21.6569 18.3431 23 20 23Z" fill="white"/>
<path d="M46.084 27.4434V25.0508C46.2988 25.2461 46.5527 25.4219 46.8457 25.5781C47.1452 25.7344 47.4609 25.8678 47.793 25.9785C48.125 26.0827 48.457 26.1641 48.7891 26.2227C49.1211 26.2812 49.4271 26.3105 49.707 26.3105C50.6836 26.3105 51.4095 26.1478 51.8848 25.8223C52.3665 25.4967 52.6074 25.0247 52.6074 24.4062C52.6074 24.0742 52.526 23.7878 52.3633 23.5469C52.207 23.2995 51.9857 23.0749 51.6992 22.873C51.4128 22.6712 51.0742 22.4792 50.6836 22.2969C50.2995 22.1081 49.8861 21.9128 49.4434 21.7109C48.9681 21.457 48.5254 21.1999 48.1152 20.9395C47.7051 20.679 47.347 20.3926 47.041 20.0801C46.7415 19.7611 46.5039 19.403 46.3281 19.0059C46.1589 18.6087 46.0742 18.1432 46.0742 17.6094C46.0742 16.9518 46.2207 16.3822 46.5137 15.9004C46.8132 15.4121 47.2038 15.0117 47.6855 14.6992C48.1738 14.3802 48.7272 14.1458 49.3457 13.9961C49.9642 13.8398 50.5957 13.7617 51.2402 13.7617C52.7051 13.7617 53.7728 13.9277 54.4434 14.2598V16.5547C53.6491 15.9818 52.627 15.6953 51.377 15.6953C51.0319 15.6953 50.6868 15.7279 50.3418 15.793C50.0033 15.8581 49.6973 15.9655 49.4238 16.1152C49.1569 16.265 48.9388 16.457 48.7695 16.6914C48.6003 16.9258 48.5156 17.209 48.5156 17.541C48.5156 17.8535 48.5807 18.1237 48.7109 18.3516C48.8411 18.5794 49.0299 18.7878 49.2773 18.9766C49.5312 19.1654 49.8372 19.3509 50.1953 19.5332C50.5599 19.709 50.9798 19.901 51.4551 20.1094C51.9434 20.3633 52.4023 20.6302 52.832 20.9102C53.2682 21.1901 53.6491 21.4993 53.9746 21.8379C54.3066 22.1764 54.5671 22.554 54.7559 22.9707C54.9512 23.3809 55.0488 23.8496 55.0488 24.377C55.0488 25.0866 54.9056 25.6855 54.6191 26.1738C54.3327 26.6621 53.9453 27.0592 53.457 27.3652C52.9753 27.6712 52.4186 27.8926 51.7871 28.0293C51.1556 28.166 50.4883 28.2344 49.7852 28.2344C49.5508 28.2344 49.2611 28.2148 48.916 28.1758C48.5775 28.1432 48.2292 28.0911 47.8711 28.0195C47.513 27.9544 47.1745 27.873 46.8555 27.7754C46.5365 27.6777 46.2793 27.5671 46.084 27.4434ZM72.1309 28H69.582L68.3223 24.4355H62.8145L61.6035 28H59.0645L64.3086 13.9961H66.9258L72.1309 28ZM67.707 22.541L65.7637 16.9551C65.7051 16.7728 65.6432 16.4798 65.5781 16.0762H65.5391C65.4805 16.4473 65.4154 16.7402 65.3438 16.9551L63.4199 22.541H67.707ZM84.623 15.9688H80.5996V28H78.2754V15.9688H74.2617V13.9961H84.623V15.9688ZM93.2773 13.9961V15.8711H91.998V26.125H93.2773V28H88.3945V26.125H89.6738V15.8711H88.3945V13.9961H93.2773Z" fill="black"/>
</svg>
