<svg width="16" height="16" viewBox="0 0 16 16" fill="none" xmlns="http://www.w3.org/2000/svg">
<mask id="mask0_19_818" style="mask-type:alpha" maskUnits="userSpaceOnUse" x="0" y="0" width="16" height="16">
<rect width="16" height="16" fill="#D9D9D9"/>
</mask>
<g mask="url(#mask0_19_818)">
<path d="M6.82333 1.77406C7.08447 0.492647 8.91553 0.492647 9.17666 1.77406V1.77406C9.35565 2.65235 10.3989 3.03207 11.1006 2.47431V2.47431C12.1243 1.66054 13.527 2.83753 12.9033 3.987V3.987C12.4759 4.77486 13.031 5.73634 13.927 5.76009V5.76009C15.2343 5.79474 15.5523 7.59799 14.3357 8.07767V8.07767C13.5018 8.40644 13.309 9.4998 13.9802 10.0939V10.0939C14.9593 10.9608 14.0438 12.5466 12.8035 12.132V12.132C11.9534 11.8478 11.1029 12.5615 11.2351 13.448V13.448C11.428 14.7415 9.70735 15.3677 9.02369 14.2529V14.2529C8.55511 13.4888 7.44489 13.4888 6.97631 14.2529V14.2529C6.29265 15.3677 4.57201 14.7415 4.7649 13.448V13.448C4.89711 12.5615 4.04663 11.8478 3.19651 12.132V12.132C1.95621 12.5466 1.04068 10.9608 2.01985 10.0939V10.0939C2.69098 9.4998 2.49819 8.40644 1.66432 8.07767V8.07767C0.44772 7.59799 0.765681 5.79474 2.07298 5.76009V5.76009C2.969 5.73634 3.52411 4.77486 3.09667 3.987V3.987C2.47303 2.83753 3.87571 1.66054 4.89942 2.47431V2.47431C5.60109 3.03207 6.64435 2.65235 6.82333 1.77406V1.77406Z" fill="#3498FF"/>
<g clip-path="url(#clip0_19_818)">
<path d="M5.35849 8.22642L7.16981 10.0377L10.1887 6.4151" stroke="white" stroke-linecap="round" stroke-linejoin="round"/>
</g>
</g>
<defs>
<clipPath id="clip0_19_818">
<rect width="7.24528" height="7.24528" fill="white" transform="translate(4.15094 4.60379)"/>
</clipPath>
</defs>
</svg>
